<?xml version="1.0" encoding="utf-8"?>
<!-- Generator: Adobe Illustrator 18.0.0, SVG Export Plug-In . SVG Version: 6.00 Build 0)  -->
<!DOCTYPE svg PUBLIC "-//W3C//DTD SVG 1.1//EN" "http://www.w3.org/Graphics/SVG/1.1/DTD/svg11.dtd">
<svg version="1.1" id="Layer_1" xmlns="http://www.w3.org/2000/svg" xmlns:xlink="http://www.w3.org/1999/xlink" x="0px" y="0px"
	 viewBox="0 0 30 30" enable-background="new 0 0 30 30" xml:space="preserve">
<path fill="#47C8F5" d="M17.2,25.4c-0.2,0.2-0.6,0.4-0.9,0.4h-2.7c-0.3,0-0.7-0.2-0.9-0.4l-1-1.2h6.4L17.2,25.4z M18.3,23.7h-6.7
	c-0.3,0-0.6-0.3-0.6-0.6c0-0.3,0.3-0.6,0.6-0.6h6.7c0.3,0,0.6,0.3,0.6,0.6C18.9,23.5,18.7,23.7,18.3,23.7z M18.3,22.1h-6.7
	c-0.3,0-0.6-0.3-0.6-0.6c0-0.3,0.3-0.6,0.6-0.6h6.7c0.3,0,0.6,0.3,0.6,0.6C18.9,21.8,18.7,22.1,18.3,22.1z M18.3,20.4h-6.7
	c-0.3,0-0.6-0.3-0.6-0.6c0-0.3,0.3-0.6,0.6-0.6h6.7c0.3,0,0.6,0.3,0.6,0.6C18.9,20.1,18.7,20.4,18.3,20.4z M18.2,17.8v0.9h-6.4v-0.9
	c-2.4-1.2-4-3.6-4-6.5c0-4,3.2-7.2,7.2-7.2c4,0,7.2,3.2,7.2,7.2C22.2,14.2,20.6,16.6,18.2,17.8z"/>
<path fill="#47C8F5" d="M15,29.2C7.2,29.2,0.8,22.8,0.8,15S7.2,0.8,15,0.8S29.2,7.2,29.2,15S22.8,29.2,15,29.2z M15,1.8
	C7.7,1.8,1.8,7.7,1.8,15c0,7.3,5.9,13.2,13.2,13.2c7.3,0,13.2-5.9,13.2-13.2C28.2,7.7,22.3,1.8,15,1.8z"/>
</svg>
