<?xml version="1.0" encoding="utf-8"?>
<!-- Generator: Adobe Illustrator 18.0.0, SVG Export Plug-In . SVG Version: 6.00 Build 0)  -->
<!DOCTYPE svg PUBLIC "-//W3C//DTD SVG 1.1//EN" "http://www.w3.org/Graphics/SVG/1.1/DTD/svg11.dtd">
<svg version="1.1" id="Layer_1" xmlns="http://www.w3.org/2000/svg" xmlns:xlink="http://www.w3.org/1999/xlink" x="0px" y="0px"
	 viewBox="0 0 20 16.2" enable-background="new 0 0 20 16.2" xml:space="preserve">
<path fill="#4F4F4F" d="M18.8,3.1H15l-0.8-2.4c-0.1-0.2-0.3-0.3-0.5-0.3H9.9c-0.2,0-0.5,0.1-0.5,0.3L8.5,3.1H4.3
	C4.3,2.7,4,2.4,3.6,2.4H3.3c-0.4,0-0.7,0.3-0.7,0.6H1.2c-0.5,0-0.9,0.4-0.9,0.9v11c0,0.5,0.4,0.9,0.9,0.9h17.5
	c0.5,0,0.9-0.4,0.9-0.9v-11C19.7,3.5,19.3,3.1,18.8,3.1z M10.3,1.4c0-0.1,0.2-0.2,0.3-0.2h2.3c0.1,0,0.3,0.1,0.3,0.2l0.6,1.6H9.7
	L10.3,1.4z M11.8,14C9.2,14,7.2,12,7.2,9.4c0-2.5,2.1-4.6,4.6-4.6s4.6,2.1,4.6,4.6C16.3,12,14.3,14,11.8,14z"/>
</svg>
