<?xml version="1.0" encoding="utf-8"?>
<!-- Generator: Adobe Illustrator 18.0.0, SVG Export Plug-In . SVG Version: 6.00 Build 0)  -->
<!DOCTYPE svg PUBLIC "-//W3C//DTD SVG 1.1//EN" "http://www.w3.org/Graphics/SVG/1.1/DTD/svg11.dtd">
<svg version="1.1" id="Layer_1" xmlns="http://www.w3.org/2000/svg" xmlns:xlink="http://www.w3.org/1999/xlink" x="0px" y="0px"
	 viewBox="0 0 100 45" enable-background="new 0 0 100 45" xml:space="preserve">
<g>
	<path fill="#202020" d="M37,38.5l-3,3.3l-5-4.4c-2.6,1.5-5.4,2.1-8.1,2.1c-10.3,0-16.6-8.2-16.6-18.1c0-9.8,6.2-18.1,16.6-18.1
		c10.3,0,16.6,8.3,16.6,18.1c0,4.6-1.4,10.1-4.9,13.3L37,38.5z M21.2,30.7l2.9-3.3l4.2,3.7c2.2-2.7,3-6.1,3-9.6
		c0-6.6-3.1-13.2-10.5-13.2c-7.4,0-10.5,6.5-10.5,13.2s3.1,13.2,10.5,13.2c1.3,0,2.7-0.2,3.9-0.8L21.2,30.7z"/>
	<path fill="#202020" d="M54.4,36c-1.8,2.2-3.9,3.1-6.7,3.1c-4.4,0-7.5-2.6-7.5-7.1c0-3.4,2.7-5.5,5.5-6.9c-1.2-1.6-2.4-3.1-2.4-5.2
		c0-3.4,2.6-5.7,5.8-5.7c3.1,0,5.9,1.9,5.9,5.7c0,2.8-2,4.8-4.3,6l3.7,4.5c0.3-0.8,0.6-1.6,0.7-3.2h3.3c-0.2,2.1-0.8,4.1-1.9,5.8
		l4.6,5.5h-4.7L54.4,36z M47.7,27.6c-1.4,0.9-3.7,1.6-3.7,4.5c0,2.6,1.6,4,3.8,4c2.8,0,3.8-1.7,4.5-2.7L47.7,27.6z M46.7,19.7
		c0,1.6,1.3,2.8,2.2,4c1.4-1,2.8-2,2.8-3.9c0-1.6-1-2.7-2.4-2.7C47.8,17.1,46.7,18.1,46.7,19.7z"/>
	<path fill="#202020" d="M76,4.1h6.4l13.3,34.6h-6.5L86,29.5H72.2l-3.2,9.1h-6.2L76,4.1z M73.8,24.9h10.6L79.2,10h-0.1L73.8,24.9z"
		/>
</g>
</svg>
