<?xml version="1.0" encoding="utf-8"?>
<!-- Generator: Adobe Illustrator 18.0.0, SVG Export Plug-In . SVG Version: 6.00 Build 0)  -->
<!DOCTYPE svg PUBLIC "-//W3C//DTD SVG 1.1//EN" "http://www.w3.org/Graphics/SVG/1.1/DTD/svg11.dtd">
<svg version="1.1" id="Layer_2" xmlns="http://www.w3.org/2000/svg" xmlns:xlink="http://www.w3.org/1999/xlink" x="0px" y="0px"
	 viewBox="0 0 50 50" enable-background="new 0 0 50 50" xml:space="preserve">
<g>
	<path fill="#5D5E5E" d="M45.2,15.3H4.8c-0.9,0-1.6,0.7-1.6,1.6v15c0,0.9,0.7,1.6,1.6,1.6h35.7c0.9,0,2.1,0.5,2.8,1.1l2.5,2.5
		c0.6,0.6,1.1,0.4,1.1-0.5V16.9C46.8,16,46.1,15.3,45.2,15.3z M14.4,26.2L14.1,28c-0.2,1.1-0.1,1.4,0.2,1.6h-1.5
		c-0.1-0.1-0.1-0.3-0.1-0.6c0-0.3,0-0.6,0.1-0.9l0.2-1.6c0.2-1.4-0.6-1.5-1.2-1.5h-1.7l-1,4.6H7.9L10,19.3h3.3c1.6,0,2.4,1,2.1,2.6
		c-0.2,1.1-0.9,2.3-2.1,2.6v0C14.2,24.6,14.5,25.4,14.4,26.2z M21.5,24.8h-3.8l-0.8,3.7h4.2l-0.2,1.1h-5.5l2.1-10.3h5.3l-0.2,1.1
		h-4.1l-0.7,3.2h3.8L21.5,24.8z M25.8,25.3h-1.6l-0.9,4.4h-1.3l2.1-10.3h2.6c0.9,0,3.2,0,2.6,3C29,24.2,27.6,25.3,25.8,25.3z
		 M34.5,29.6H29l2.1-10.3h1.3l-1.9,9.2h4.2L34.5,29.6z M38.1,25.6l-0.8,4H36l0.8-4l-1.4-6.3h1.4l1,4.8l3-4.8h1.3L38.1,25.6z"/>
	<path fill="#5D5E5E" d="M12.6,20.3h-1.5L10.3,24h1.3c0.8,0,2.1,0,2.5-2C14.3,21,13.8,20.3,12.6,20.3z"/>
	<path fill="#5D5E5E" d="M26.7,20.3h-1.4l-0.8,3.9H26c0.9,0,1.8-0.6,2.1-2C28.3,21.1,28,20.3,26.7,20.3z"/>
</g>
</svg>
