<?xml version="1.0" encoding="utf-8"?>
<!-- Generator: Adobe Illustrator 18.0.0, SVG Export Plug-In . SVG Version: 6.00 Build 0)  -->
<!DOCTYPE svg PUBLIC "-//W3C//DTD SVG 1.1//EN" "http://www.w3.org/Graphics/SVG/1.1/DTD/svg11.dtd">
<svg version="1.1" id="Layer_2" xmlns="http://www.w3.org/2000/svg" xmlns:xlink="http://www.w3.org/1999/xlink" x="0px" y="0px"
	 viewBox="0 0 50 50" enable-background="new 0 0 50 50" xml:space="preserve">
<path fill="#5D5E5E" d="M41.4,37.9l-11-11c3.1-4.8,2.6-11.3-1.6-15.5c-4.8-4.8-12.6-4.8-17.4,0c-4.8,4.8-4.8,12.6,0,17.4
	c4.2,4.2,10.7,4.7,15.5,1.6l11,11c1,1,2.6,1,3.6,0C42.4,40.5,42.4,38.9,41.4,37.9z M26.1,26.1c-3.3,3.3-8.6,3.3-11.9,0
	c-3.3-3.3-3.3-8.6,0-11.9c3.3-3.3,8.6-3.3,11.9,0C29.4,17.5,29.4,22.8,26.1,26.1z"/>
</svg>
