<?xml version="1.0" encoding="utf-8"?>
<!-- Generator: Adobe Illustrator 18.0.0, SVG Export Plug-In . SVG Version: 6.00 Build 0)  -->
<!DOCTYPE svg PUBLIC "-//W3C//DTD SVG 1.1//EN" "http://www.w3.org/Graphics/SVG/1.1/DTD/svg11.dtd">
<svg version="1.1" id="Layer_1" xmlns="http://www.w3.org/2000/svg" xmlns:xlink="http://www.w3.org/1999/xlink" x="0px" y="0px"
	 viewBox="0 0 139 54.8" enable-background="new 0 0 139 54.8" xml:space="preserve">
<g>
	<g>
		<path fill="#59CBF2" d="M27.8,0.9h83.7c14.7,0,26.7,11.9,26.7,26.5c0,14.6-11.9,26.5-26.7,26.5H27.8C13,53.9,1.1,42.1,1.1,27.4
			C1.1,12.8,13,0.9,27.8,0.9z"/>
		<path d="M0.6,27.4c0-14.9,12.2-27,27.2-27h83.7c15,0,27.2,12.1,27.2,27c0,14.9-12.2,27-27.2,27H27.8C12.8,54.4,0.6,42.3,0.6,27.4z
			 M27.8,1.4c-14.4,0-26.2,11.7-26.2,26c0,14.4,11.8,26,26.2,26h83.7c14.4,0,26.2-11.7,26.2-26c0-14.4-11.8-26-26.2-26L27.8,1.4z"/>
		<ellipse fill="#CCCCCC" cx="27.8" cy="27.3" rx="25.7" ry="25.5"/>
	</g>
</g>
</svg>
